<?xml version="1.0" encoding="UTF-8"?><svg xmlns="http://www.w3.org/2000/svg" xmlns:xlink="http://www.w3.org/1999/xlink" viewBox="0 0 120.86 157.52"><defs><style>.cls-1{fill:url(#linear-gradient-5);}.cls-1,.cls-2,.cls-3,.cls-4,.cls-5,.cls-6,.cls-7,.cls-8,.cls-9,.cls-10,.cls-11,.cls-12,.cls-13,.cls-14,.cls-15,.cls-16,.cls-17,.cls-18,.cls-19,.cls-20,.cls-21,.cls-22,.cls-23,.cls-24,.cls-25,.cls-26,.cls-27,.cls-28,.cls-29,.cls-30,.cls-31,.cls-32,.cls-33,.cls-34,.cls-35,.cls-36,.cls-37,.cls-38,.cls-39,.cls-40,.cls-41,.cls-42,.cls-43,.cls-44,.cls-45,.cls-46,.cls-47,.cls-48,.cls-49,.cls-50,.cls-51,.cls-52,.cls-53,.cls-54,.cls-55,.cls-56,.cls-57,.cls-58,.cls-59,.cls-60,.cls-61,.cls-62,.cls-63,.cls-64,.cls-65,.cls-66,.cls-67{stroke:#fff;stroke-miterlimit:10;}.cls-2{fill:url(#linear-gradient-6);}.cls-3{fill:url(#linear-gradient-3);}.cls-4{fill:url(#linear-gradient-4);}.cls-5{fill:url(#linear-gradient-2);}.cls-6{fill:url(#linear-gradient-7);}.cls-7,.cls-65{mix-blend-mode:multiply;}.cls-7,.cls-66{fill:none;}.cls-8{fill:#01aad5;}.cls-9{fill:#0193b8;}.cls-10{fill:#039c50;}.cls-11{fill:#7cc242;}.cls-12{fill:#325dab;}.cls-13{fill:#b8d433;}.cls-14{fill:#ffcd05;}.cls-15{fill:#ef4823;}.cls-16{fill:#fdba12;}.cls-17{fill:#fee900;}.cls-18{fill:#fbad18;}.cls-19{fill:#f5eb1e;}.cls-20{fill:#f68b2b;}.cls-21{fill:#f36d21;}.cls-22{fill:#f2632b;}.cls-23{fill:#ee1e4d;}.cls-24{fill:#ed2224;}.cls-25{fill:#e21567;}.cls-26{fill:#c4d92d;}.cls-27{fill:#cf1f46;}.cls-28{fill:#e51a52;}.cls-29{fill:#d6df24;}.cls-30{fill:#d01f40;}.cls-31{fill:#d11f40;}.cls-32{fill:#a9cf38;}.cls-33{fill:#834a9d;}.cls-34{fill:#57499e;}.cls-35{fill:#2eab83;}.cls-36{fill:#3a3a96;}.cls-37{fill:#784d9f;}.cls-38{fill:#524a9e;}.cls-39{fill:#75c043;}.cls-40{fill:#5fbb46;}.cls-41{fill:#71489d;}.cls-42{fill:#4b3b97;}.cls-43{fill:#5c5eaa;}.cls-44{fill:#88c540;}.cls-45{fill:#1998d5;}.cls-46{fill:#18b24b;}.cls-47{fill:#2360ac;}.cls-48{fill:#07a04e;}.cls-49{fill:#21418f;}.cls-50{fill:#1f5fad;}.cls-51{fill:#0e877d;}.cls-52{fill:#1c5aa0;}.cls-53{fill:#0c8fc1;}.cls-54{fill:#3f76ba;}.cls-55{fill:#057d6a;}.cls-56{fill:#067ab6;}.cls-57{fill:#056c67;}.cls-58{fill:#095c6a;}.cls-59{fill:#41bc9f;}.cls-60{fill:#41b649;}.cls-61{fill:#432f90;}.cls-62{fill:#f8961d;}.cls-63{fill:#f7ec21;}.cls-64{fill:#f57e20;}.cls-65{fill:#fff;}.cls-68{isolation:isolate;}.cls-67{fill:url(#linear-gradient);}</style><linearGradient id="linear-gradient" x1="64.96" y1="69.85" x2="52.2" y2="82.27" gradientUnits="userSpaceOnUse"><stop offset="0" stop-color="#0193b8"/><stop offset="1" stop-color="#43b449" stop-opacity="0"/></linearGradient><linearGradient id="linear-gradient-2" x1="43.21" y1="62.14" x2="40.82" y2="73.99" gradientUnits="userSpaceOnUse"><stop offset="0" stop-color="#0193b8"/><stop offset="1" stop-color="#0193b8" stop-opacity="0"/></linearGradient><linearGradient id="linear-gradient-3" x1="26.62" y1="64.02" x2="22.98" y2="74.5" gradientUnits="userSpaceOnUse"><stop offset="0" stop-color="#2b2977"/><stop offset="1" stop-color="#2b2977" stop-opacity="0"/></linearGradient><linearGradient id="linear-gradient-4" x1="15.01" y1="60.28" x2="4.07" y2="64.15" gradientUnits="userSpaceOnUse"><stop offset="0" stop-color="#2b2977"/><stop offset="1" stop-color="#2b2977" stop-opacity="0"/></linearGradient><linearGradient id="linear-gradient-5" x1="16.32" y1="58.91" x2="14.77" y2="74.96" gradientUnits="userSpaceOnUse"><stop offset="0" stop-color="#3a3a96"/><stop offset="1" stop-color="#3a3a96" stop-opacity="0"/></linearGradient><linearGradient id="linear-gradient-6" x1="87.46" y1="95.72" x2="73.96" y2="117.42" gradientUnits="userSpaceOnUse"><stop offset="0" stop-color="#4ab749"/><stop offset="1" stop-color="#4ab749" stop-opacity="0"/></linearGradient><linearGradient id="linear-gradient-7" x1="67.76" y1="72.29" x2="63.21" y2="88.01" gradientUnits="userSpaceOnUse"><stop offset="0" stop-color="#43b449"/><stop offset="1" stop-color="#43b449" stop-opacity="0"/></linearGradient></defs><g class="cls-68"><g id="Layer_1"><polygon class="cls-67" points="55.67 88.45 65.09 72.18 65.07 72 44.98 79.73 55.67 88.45"/><polygon class="cls-5" points="44.56 79.73 44.98 79.4 41.99 63.28 35.84 72.61 44.56 79.73"/><polygon class="cls-36" points="41.99 63.28 16.78 57.48 35.84 72.61 41.99 63.28"/><polygon class="cls-3" points="35.77 72.55 16.78 57.48 23.89 77.89 35.77 72.55"/><polygon class="cls-4" points="16.78 57.48 1.59 53.21 5.31 75.54 16.78 57.48"/><polygon class="cls-1" points="5.43 75.75 23.89 77.89 16.69 57.48 5.31 75.54 5.43 75.75"/><polygon class="cls-2" points="83.98 115.64 88.9 93.99 71.16 107.59 71.51 124.19 83.98 115.64"/><polygon class="cls-6" points="68.93 93.51 65.13 72.1 55.73 88.55 68.93 93.51"/><polygon class="cls-37" points="9.97 29.32 15.9 38.21 27.75 16.9 25.58 12.23 17.26 18.84 9.97 29.32"/><polygon class="cls-16" points="94.85 19.62 86.82 12.06 89.98 22.66 97.76 24.37 94.85 19.62"/><polygon class="cls-27" points="97.71 24.37 89.93 22.66 87.44 24.85 91.8 28.55 97.71 24.37"/><polygon class="cls-50" points="91.8 28.55 100.27 29.2 97.71 24.37 91.8 28.55"/><polygon class="cls-49" points="100.27 29.2 91.8 28.55 93.39 29.97 100.27 33.13 100.27 29.2"/><polygon class="cls-23" points="71.56 20.32 76.66 24.65 80.59 26.78 87.63 33.8 97.76 50.09 109.29 38.89 112.67 38.89 93.44 29.97 87.49 24.85 89.98 22.66 71.56 20.32"/><polygon class="cls-62" points="89.98 22.66 86.82 12.06 70.96 4.22 89.98 22.66"/><polygon class="cls-15" points="71.56 20.32 89.98 22.66 70.96 4.22 67.2 3.12 71.56 20.32"/><polygon class="cls-64" points="49.88 1.86 71.56 20.32 67.2 3.12 60.59 1.32 49.88 1.86"/><polygon class="cls-62" points="60.72 25.22 71.56 20.32 49.88 1.86 60.72 25.22"/><polygon class="cls-24" points="40.97 2.55 40.97 4.65 60.72 25.22 49.88 1.86 40.97 2.55"/><polygon class="cls-23" points="40.97 4.65 40.97 2.55 25.58 12.23 27.75 16.9 40.97 4.65"/><polygon class="cls-25" points="27.75 16.9 60.72 25.22 40.97 4.65 27.75 16.9"/><polygon class="cls-33" points="31.18 27.87 51.73 40.69 60.72 25.22 27.75 16.9 31.18 27.87"/><polygon class="cls-41" points="31.18 27.87 27.75 16.9 15.9 38.21 31.18 27.87"/><polygon class="cls-43" points="51.73 40.69 31.18 27.87 15.9 38.21 51.73 40.69"/><polygon class="cls-28" points="65.71 26.59 76.66 24.65 71.56 20.32 60.72 25.22 65.71 26.59"/><polygon class="cls-45" points="65.71 26.59 60.72 25.22 51.73 40.69 65.71 26.59"/><polygon class="cls-54" points="62.12 41.2 70.49 30.09 65.71 26.59 51.73 40.69 62.12 41.2"/><polygon class="cls-47" points="70.49 30.09 77.5 28.17 76.66 24.65 65.71 26.59 70.49 30.09"/><polygon class="cls-49" points="77.5 28.17 70.49 30.09 77.5 34.84 77.5 28.17"/><polygon class="cls-31" points="80.59 26.78 76.66 24.65 77.5 28.17 80.59 26.78"/><polygon class="cls-22" points="83.57 36.5 87.63 33.8 80.59 26.78 77.5 28.17 83.57 36.5"/><polygon class="cls-52" points="77.5 34.84 70.49 30.09 62.12 41.2 77.5 34.84"/><polygon class="cls-52" points="83.57 36.5 77.5 28.17 77.5 34.84 83.57 36.5"/><polygon class="cls-20" points="87.63 33.8 83.57 36.5 97.76 50.09 87.63 33.8"/><polygon class="cls-14" points="83.57 66.33 83.57 36.5 77.5 34.84 62.12 41.2 83.57 66.33"/><polygon class="cls-17" points="83.57 36.5 83.57 66.33 97.76 50.09 83.57 36.5"/><polygon class="cls-63" points="83.57 66.33 90.88 69.92 97.76 50.09 83.57 66.33"/><polygon class="cls-30" points="112.67 38.89 109.29 38.89 97.76 50.09 104.08 51.72 110.62 50.9 112.67 38.89"/><polygon class="cls-18" points="97.76 50.09 90.88 69.92 107.11 57.7 104.08 51.72 97.76 50.09"/><polygon class="cls-21" points="113.18 57.27 110.62 50.9 104.08 51.72 107.11 57.7 111.09 58.64 113.18 57.27"/><polygon class="cls-55" points="107.11 57.7 90.88 69.92 100.32 70.47 109.29 65.77 107.11 57.7"/><polygon class="cls-57" points="113.18 57.27 110.96 58.55 107.11 57.7 109.29 65.77 115.11 60.86 113.18 57.27"/><polygon class="cls-58" points="109.29 65.77 113.18 66.54 115.11 60.86 109.29 65.77"/><polygon class="cls-35" points="109.29 65.77 100.32 70.47 102.1 75.64 111.11 70.97 109.29 65.77"/><polygon class="cls-59" points="116.63 68.75 113.18 66.54 109.29 65.77 111.11 70.97 115.77 71.26 116.63 68.75"/><polygon class="cls-51" points="111.11 70.97 102.1 75.64 115.66 75.19 115.11 73.88 115.77 71.26 111.11 70.97"/><polygon class="cls-18" points="83.57 66.33 62.12 41.2 65.07 72 83.57 66.33"/><polygon class="cls-12" points="65.07 72 62.12 41.2 51.73 40.69 65.07 72"/><polygon class="cls-39" points="83.98 84.71 83.57 66.33 65.07 72 83.98 84.71"/><polygon class="cls-26" points="90.88 69.92 83.57 66.33 83.98 84.71 90.88 69.92"/><polygon class="cls-19" points="100.32 70.47 90.88 69.92 83.98 84.71 102.1 75.64 100.32 70.47"/><polygon class="cls-13" points="102.1 75.64 83.98 84.71 111.9 85.16 118.74 82.82 102.1 75.64"/><polygon class="cls-29" points="102.1 75.64 118.74 82.82 115.66 75.19 102.1 75.64"/><polygon class="cls-8" points="41.99 63.28 65.07 72 51.73 40.69 41.99 63.28"/><polygon class="cls-53" points="51.73 40.69 34.07 55.13 41.99 63.28 51.73 40.69"/><polygon class="cls-34" points="34.07 55.13 51.73 40.69 15.9 38.21 16.07 38.38 34.07 55.13"/><polygon class="cls-42" points="34.07 55.13 15.9 38.21 16.78 57.48 34.07 55.13"/><polygon class="cls-38" points="2.22 53.37 15.9 38.21 9.97 29.32 6.21 37.36 2.22 53.37"/><polygon class="cls-61" points="16.78 57.48 15.9 38.21 2.22 53.37 16.78 57.48"/><polygon class="cls-56" points="41.99 63.28 34.07 55.13 16.78 57.48 41.99 63.28"/><polygon class="cls-9" points="45.07 80.4 65.07 72 41.99 63.28 45.07 80.4"/><polygon class="cls-60" points="69 93.99 89.11 94.39 83.91 84.36 65.07 72 69 93.99"/><polygon class="cls-32" points="118.74 88.79 111.9 85.16 83.77 84.33 89.11 94.39 108.94 88.52 118.74 88.79"/><polygon class="cls-11" points="89 94.16 110.65 94.16 108.82 88.29 89 94.16"/><polygon class="cls-44" points="111.75 85.16 118.74 88.79 118.74 82.82 111.75 85.16"/><polygon class="cls-46" points="89 94.16 69 93.99 71.16 107.59 89 94.16"/><polygon class="cls-10" points="89 94.16 84.21 115.19 102.27 105.79 89 94.16"/><polygon class="cls-46" points="89.11 94.16 101.7 105.79 110.76 94.16 89.11 94.16"/><polygon class="cls-40" points="118.74 88.79 108.82 88.35 110.66 94.35 116.4 94.29 118.74 88.79"/><polygon class="cls-48" points="110.45 94.25 102.37 105.13 102.68 105.88 116.4 94.29 110.45 94.25"/><path class="cls-65" d="M89.61,72.34l-4.92,10.46c-.11-.03-.22-.06-.3-.12-.06-.02-.13-.03-.2-.04h0c-.07,0-.14,0-.21,0l-.23-15.28h-.34s.23,15.33,.23,15.33c-.36,.09-.66,.3-.86,.6l-16.55-10.52c.13-.22,.21-.47,.21-.74,0-.13-.02-.25-.05-.37l6.12-1.98c-.04-.11-.07-.22-.08-.33l-6.16,2c-.21-.4-.6-.7-1.06-.78l-2.45-22.87-.34,.04,2.45,22.82s-.1,0-.14,.01l-11.43-27.13-.32,.13,11.42,27.09c-.33,.13-.61,.39-.77,.71l-20.21-7.83c.02-.11,.04-.21,.04-.33,0-.56-.31-1.04-.76-1.29l9.12-21.25-.31-.13-9.12,21.25c-.14-.04-.28-.07-.42-.07-.33,0-.64,.11-.88,.3l-5.98-6.04c.24-.26,.39-.61,.39-.99,0-.24-.06-.46-.16-.66l10.81-8.96-.22-.26-10.78,8.94c-.27-.33-.68-.54-1.14-.54-.39,0-.75,.15-1.01,.4l-15.87-14.78c.13-.17,.22-.37,.26-.58l21.28,1.6,.03-.34-21.29-1.6c0-.22-.07-.43-.16-.61l10.65-7.21-.19-.28-10.65,7.21c-.27-.31-.66-.51-1.11-.51-.24,0-.46,.06-.66,.16l-4.3-6.45-.29,.19,4.3,6.45c-.32,.27-.52,.66-.52,1.11,0,.77,.6,1.4,1.35,1.46l.65,16.26c-.49,.15-.87,.53-1,1.03l-12.01-3.39c.04-.14,.07-.28,.07-.44,0-.33-.11-.63-.29-.88h0c-.09-.07-.17-.16-.23-.26h0c-.11-.09-.24-.18-.37-.24l3.8-14.89-.33-.08-3.8,14.88c-.09-.02-.17-.03-.27-.03-.83,0-1.5,.67-1.5,1.5,0,.7,.48,1.28,1.13,1.45l3.19,19.57c-.53,.23-.91,.76-.91,1.37,0,.83,.67,1.5,1.5,1.5,.14,0,.28-.03,.4-.06l11.16,18.38c-.48,.25-.81,.74-.81,1.32,0,.83,.67,1.5,1.5,1.5,.46,0,.87-.21,1.14-.54l10.27,6.08c-.08,.18-.12,.38-.12,.59,0,.83,.67,1.5,1.5,1.5s1.5-.67,1.5-1.5c0-.41-.17-.79-.44-1.05l13.13-21.94c.11,.03,.23,.04,.34,.04,.14,0,.28-.03,.41-.06l5.48,14c-.56,.21-.96,.76-.96,1.39,0,.28,.08,.54,.22,.76l-8.14,6.72c-.27-.28-.65-.44-1.06-.44-.83,0-1.5,.67-1.5,1.49s.67,1.5,1.5,1.5c.77,0,1.4-.59,1.48-1.33l15.42-.71c.13,.51,.52,.91,1.03,1.06l-.21,35.45c-.71,.12-1.25,.73-1.25,1.47,0,.82,.67,1.5,1.5,1.5s1.5-.67,1.5-1.5c0-.42-.17-.8-.45-1.07l10.92-16.62c.17,.13,.37,.22,.59,.27l.82,28.86c-.68,.14-1.2,.74-1.2,1.46,0,.83,.67,1.5,1.5,1.5s1.5-.67,1.5-1.5c0-.58-.33-1.08-.82-1.33l14.65-33.08s.07,0,.1,0c.82,0,1.49-.67,1.49-1.5,0-.25-.07-.48-.18-.69l9.26-9.62,2.79-2.17c.18,.08,.39,.12,.6,.12,.83,0,1.5-.67,1.5-1.5,0-.1-.01-.19-.03-.29l11.9-9.86c.27,.26,.64,.43,1.04,.43,.82,0,1.5-.67,1.5-1.5,0-.6-.35-1.11-.86-1.35l1.26-3.02c.12,.03,.25,.05,.37,.05,.83,0,1.5-.67,1.5-1.49,0-.74-.53-1.35-1.23-1.47v-3.19c.7-.13,1.23-.74,1.23-1.47,0-.83-.67-1.5-1.5-1.5-.12,0-.23,.02-.34,.04l-2.76-6.3-.31,.14,2.76,6.28c-.25,.12-.46,.31-.61,.55l-5.62-2.3c-.04,.11-.1,.21-.17,.3l5.64,2.31c-.05,.15-.09,.31-.09,.48,0,.09,0,.19,.03,.27l-4.3,1.37c-.28-.35-.7-.58-1.17-.58-.71,0-1.31,.5-1.46,1.18l-24.76-.66s0-.06,0-.09c0-.03,0-.05-.01-.08l11.81-5.92-.15-.31-11.72,5.88c-.03-.09-.06-.18-.1-.26h0s-.03-.06-.04-.08c-.05-.05-.09-.11-.13-.17l-.02-.04h0s-.11-.08-.16-.13l4.95-10.52-.31-.14Z"/><path class="cls-65" d="M66.02,73.04l16.6,10.55c-.06,.17-.1,.34-.1,.53,0,.83,.67,1.5,1.5,1.5,.1,0,.2,0,.3-.03l3.86,7.18c-.4,.23-.68,.64-.73,1.13l-18.39-.26-3.49-20.25c.18-.08,.34-.2,.47-.34Z"/><path class="cls-65" d="M87.68,94.9l-15.36,11.54c-.27-.41-.73-.68-1.25-.68,0,0-.01,0-.02,0l-1.96-11.81,18.34,.27c.03,.25,.12,.48,.25,.68Z"/><path class="cls-65" d="M64.71,73.49c.07,.01,.14,.02,.22,.02,.1,0,.2,0,.29-.03l3.46,20.04-12.74-4.8,8.78-15.23Z"/><path class="cls-65" d="M63.73,72.91c.16,.22,.38,.39,.63,.5l-8.72,15.14-9.48-7.8c.2-.25,.32-.57,.32-.91,0-.02,0-.04,0-.06l17.26-6.86Z"/><path class="cls-7" d="M35.82,72.8l7.84,6.35c-.1,.19-.16,.4-.17,.63l-18.96-2.03,11.28-4.94Z"/><path class="cls-65" d="M23.99,77.61l-6.59-18.88c.14-.05,.27-.13,.38-.22l17.74,14.04-11.54,5.05Z"/><path class="cls-65" d="M35.81,72.35l-17.78-14.07c.08-.1,.16-.21,.21-.34l22.22,5.05c-.01,.07-.02,.14-.02,.21,0,.46,.21,.87,.54,1.14l-5.17,8.02Z"/><path class="cls-65" d="M33.96,56.45c.32,0,.61-.1,.86-.27l5.98,6.05c-.11,.13-.2,.27-.26,.43l-22.2-5.04s0-.09,.01-.13l14.22-1.98c.22,.55,.76,.95,1.39,.95Z"/><path class="cls-65" d="M16.13,39.65c.27-.04,.52-.16,.72-.33l15.85,14.76s0,0,0,0l.03,.03c-.16,.24-.26,.53-.26,.84,0,.07,.01,.14,.02,.21l-14.14,1.96c-.1-.71-.69-1.25-1.42-1.28-.05,0-.1,0-.15,0l-.64-16.21Z"/><path class="cls-65" d="M16.87,58.84c.07,0,.13-.01,.2-.02l6.57,18.82-16.75-1.91c.01-.07,.02-.14,.02-.22,0-.48-.23-.9-.58-1.17l9.92-15.64c.19,.09,.4,.14,.62,.14Z"/><path class="cls-65" d="M5.41,74.02c-.09,0-.17,.01-.26,.03L1.99,54.62h0c.55,0,1.03-.3,1.29-.74l12.09,3.41s0,.03,0,.05c0,.48,.23,.9,.58,1.18l-9.92,15.64c-.19-.09-.4-.14-.62-.14Z"/><path class="cls-66" d="M17.67,95.15h-.13c-.13,.03-.71-.72-1.28-1.66l-9.1-14.96c-.57-.94-.92-1.81-.77-1.92s1.3-.44,2.39-.32l12.88,1.47c1.09,.12,1.72,1.09,1.39,2.14l-4.2,13.48c-.33,1.05-.77,1.85-.98,1.78h-.22Z"/><path class="cls-66" d="M18.76,95.65c-.1-.1,.08-1.04,.41-2.1l4.24-13.62c.33-1.05,1.49-1.81,2.58-1.7l15.54,1.67c1.09,.12,2.02,.31,2.06,.43s-.55,.88-1.49,1.46l-21.36,13.24c-.94,.58-1.89,.72-1.99,.62Z"/><path class="cls-66" d="M32.27,101.29c-.56,.94-1.25,1.61-1.52,1.49h-.78c-.39,.34-1.48,.15-2.43-.41l-6.81-4.04c-.95-.56-1.65-1.21-1.56-1.45v-.32c-.01-.08,.74-.62,1.68-1.2l21.52-13.33c.94-.58,1.74-1.03,1.78-.99s-.29,.88-.85,1.82l-11.02,18.42Z"/><path class="cls-65" d="M43.86,78.86l-7.68-6.22h0s-.1-.08-.1-.08l5.18-8.04c.2,.1,.43,.17,.67,.17,.04,0,.09,0,.13-.01l2.58,13.71c-.31,.07-.58,.25-.78,.48Z"/><path class="cls-65" d="M44.99,78.33s0,0-.01,0l-2.58-13.73c.38-.13,.7-.4,.87-.76l20.21,7.82c-.03,.12-.05,.23-.05,.36,0,.21,.04,.41,.12,.59l-17.13,6.81c-.18-.63-.75-1.09-1.43-1.09Z"/><path class="cls-66" d="M46.45,82.99c-.4-1.02-.7-1.88-.66-1.91s.83,.48,1.68,1.17l6.46,5.31c.85,.7,1.13,2.07,.63,3.05l-1.51,2.94c-.5,.98-1.12,1.69-1.37,1.59h-.33c-.07,0-.46-.82-.86-1.84l-4.04-10.32Z"/><path class="cls-66" d="M57.79,104.27h0s-.9,.07-2,.12l-11.38,.52c-1.1,.05-2.02,0-2.05-.12s.54-.96,1.38-1.66l5.05-4.17c.85-.7,1.84-1.07,2.19-.81h.82c.35-.23,1.28,.21,2.07,.98l2.85,2.77c.79,.77,1.26,1.67,1.05,2v.38Z"/><path class="cls-66" d="M58.96,102.78c-.3,.15-1.18-.35-1.97-1.12l-2.88-2.8c-.79-.77-1.32-1.63-1.19-1.91v-.74c-.27-.37-.09-1.47,.41-2.45l1.42-2.77c.5-.98,.93-1.82,.96-1.87s.89,.23,1.92,.62l9.24,3.48c1.03,.39,2.02,1.59,2.2,2.68l1.32,7.95c.18,1.09,.11,2.1-.16,2.25s-1.48,.58-2.54,.29l-5.01-1.38c-1.06-.29-1.92-.59-1.91-.67v-.07c0-.83-.67-1.49-1.5-1.49h-.32Z"/><path class="cls-66" d="M70.26,124.1c.19,.32-.14,1.34-.74,2.26l-8.75,13.32c-.6,.92-1.19,1.63-1.31,1.57s-.46-1.01-.45-2.11l.19-31.37c0-1.1,.03-2,.06-1.99h.38c.32-.19,1.05,.43,1.63,1.36l8.48,13.76c.58,.94,.81,2.01,.52,2.38v.82Z"/><path class="cls-65" d="M71.08,122.41l-10.61-17.23c.09-.11,.16-.23,.21-.37l8.91,2.45h0c0,.81,.65,1.47,1.46,1.49l.34,13.54c-.1,.03-.2,.07-.29,.12Z"/><path class="cls-65" d="M71.71,122.24l-.34-13.51c.68-.14,1.2-.74,1.2-1.46,0-.18-.04-.35-.09-.51l15.44-11.6c.18,.16,.4,.28,.65,.34l-4.23,18.17c-.1-.02-.21-.04-.32-.04-.83,0-1.5,.67-1.5,1.49,0,.4,.16,.77,.42,1.04l-9.96,6.7c-.27-.38-.71-.63-1.22-.63-.02,0-.03,0-.04,0Z"/><path class="cls-65" d="M100.6,106.39l-15.23,8.12c-.14-.32-.4-.57-.71-.72l4.25-18.24h0c.32,0,.61-.1,.86-.27l10.92,9.71c-.14,.23-.23,.5-.23,.79,0,.22,.05,.43,.14,.62Z"/><path class="cls-66" d="M99.7,108c-.74,.58-1.97,1.7-2.74,2.5l-6.45,6.71c-.76,.79-1.69,1.21-2.06,.93h-.45c-.83,0-1.5,.67-1.5,1.5v.67c.58,.41,.69,1.57,.25,2.58l-13.01,29.37c-.45,1.01-.86,1.82-.91,1.81s-.24-.92-.27-2.02l-.71-24.81c-.03-1.1,.6-2.3,1.4-2.68v-1.02c-.06-.2,.63-.87,1.55-1.48l6.75-4.54c.91-.61,1.89-1.01,2.16-.88h.29c.83,0,1.5-.67,1.5-1.5v-.1c-.02-.11,.77-.61,1.74-1.13l11.78-6.27c.97-.52,1.8-.9,1.85-.85s-.43,.64-1.17,1.22Z"/><path class="cls-65" d="M101.96,104.27c-.41,0-.79,.17-1.06,.44l-10.88-9.67c.19-.21,.32-.49,.36-.79h18.36c.06,.46,.33,.85,.71,1.08l-6.83,9.11c-.2-.1-.43-.16-.67-.16Z"/><path class="cls-65" d="M90.53,93.91l18.08-5.37,1.28,4.05c-.62,.14-1.09,.67-1.15,1.32h-18.21Z"/><path class="cls-65" d="M103.31,105.14c-.09-.2-.23-.38-.4-.51l6.87-9.16c.14,.04,.29,.07,.44,.07,.68,0,1.25-.46,1.43-1.08h3.24s0,.07,0,.1c0,.3,.09,.57,.24,.8l-11.81,9.78Z"/><path class="cls-65" d="M116.7,93.1c-.11-.02-.22-.04-.33-.04-.67,0-1.23,.44-1.42,1.05h-3.24s0-.05,0-.07c0-.82-.66-1.48-1.48-1.49l-1.28-4.04,8.21,.44c.07,.49,.37,.9,.79,1.12l-1.26,3.04Z"/><path class="cls-65" d="M117.28,83.22c.22,.51,.72,.86,1.3,.89v3.15c-.48,.02-.91,.27-1.16,.64l-4.27-2.32c.04-.13,.06-.26,.06-.4,0-.22-.05-.43-.14-.62l4.21-1.35Z"/><path class="cls-65" d="M85.43,84.54l24.79,.66c.01,.82,.68,1.47,1.49,1.47,.56,0,1.05-.31,1.3-.78l4.24,2.31c-.05,.12-.08,.26-.09,.4l-8.44-.45h-.03s-18.37,5.46-18.37,5.46c-.19-.61-.75-1.06-1.42-1.06-.15,0-.29,.03-.43,.07l-3.84-7.15c.38-.18,.68-.52,.8-.93Z"/></g></g></svg>